<mxfile host="app.diagrams.net" agent="Mozilla/5.0 (Macintosh; Intel Mac OS X 10_15_7) AppleWebKit/605.1.15 (KHTML, like Gecko) Version/18.1.1 Safari/605.1.15" version="26.0.1">
  <diagram name="UML Use Case Diagram" id="oICtsL9uB1lXgmwOzrsz">
    <mxGraphModel dx="664" dy="473" grid="1" gridSize="10" guides="1" tooltips="1" connect="1" arrows="1" fold="1" page="1" pageScale="1" pageWidth="850" pageHeight="1100" math="0" shadow="0">
      <root>
        <mxCell id="0" />
        <mxCell id="1" parent="0" />
        <mxCell id="Xf2sIOohdtnyabWNmVCX-10" value="User" style="shape=umlActor;verticalLabelPosition=bottom;verticalAlign=top;html=1;" vertex="1" parent="1">
          <mxGeometry x="250" y="240" width="30" height="60" as="geometry" />
        </mxCell>
        <mxCell id="Xf2sIOohdtnyabWNmVCX-11" value="Preferences Use Case" style="shape=ellipse;whiteSpace=wrap;html=1;aspect=fixed;" vertex="1" parent="1">
          <mxGeometry x="400" y="320" width="160" height="80" as="geometry" />
        </mxCell>
        <mxCell id="Xf2sIOohdtnyabWNmVCX-12" value="Suggestions Use Case" style="shape=ellipse;whiteSpace=wrap;html=1;aspect=fixed;" vertex="1" parent="1">
          <mxGeometry x="400" y="160" width="160" height="80" as="geometry" />
        </mxCell>
        <mxCell id="Xf2sIOohdtnyabWNmVCX-13" value="RecommendationBloc" style="shape=umlComponent;whiteSpace=wrap;html=1;" vertex="1" parent="1">
          <mxGeometry x="640" y="250" width="150" height="60" as="geometry" />
        </mxCell>
        <mxCell id="Xf2sIOohdtnyabWNmVCX-14" style="rounded=0;orthogonalLoop=1;jettySize=auto;loopDirection=0;endArrow=open;strokeColor=#000000;" edge="1" parent="1" source="Xf2sIOohdtnyabWNmVCX-10" target="Xf2sIOohdtnyabWNmVCX-11">
          <mxGeometry relative="1" as="geometry">
            <mxPoint x="265" y="270" as="targetPoint" />
          </mxGeometry>
        </mxCell>
        <mxCell id="Xf2sIOohdtnyabWNmVCX-15" style="rounded=0;orthogonalLoop=1;jettySize=auto;loopDirection=0;endArrow=open;strokeColor=#000000;" edge="1" parent="1" source="Xf2sIOohdtnyabWNmVCX-10" target="Xf2sIOohdtnyabWNmVCX-12">
          <mxGeometry relative="1" as="geometry">
            <mxPoint x="265" y="270" as="targetPoint" />
          </mxGeometry>
        </mxCell>
        <mxCell id="Xf2sIOohdtnyabWNmVCX-16" style="rounded=0;orthogonalLoop=1;jettySize=auto;loopDirection=0;endArrow=open;strokeColor=#000000;" edge="1" parent="1" source="Xf2sIOohdtnyabWNmVCX-11" target="Xf2sIOohdtnyabWNmVCX-13">
          <mxGeometry relative="1" as="geometry">
            <mxPoint x="230" y="420" as="targetPoint" />
          </mxGeometry>
        </mxCell>
        <mxCell id="Xf2sIOohdtnyabWNmVCX-17" style="rounded=0;orthogonalLoop=1;jettySize=auto;loopDirection=0;endArrow=open;strokeColor=#000000;" edge="1" parent="1" source="Xf2sIOohdtnyabWNmVCX-12" target="Xf2sIOohdtnyabWNmVCX-13">
          <mxGeometry relative="1" as="geometry">
            <mxPoint x="430" y="420" as="targetPoint" />
          </mxGeometry>
        </mxCell>
      </root>
    </mxGraphModel>
  </diagram>
</mxfile>
